  0
SECTION
  2
HEADER
  9
$ACADVER
  1
AC1009
  9
$DWGCODEPAGE
  3
ANSI_932
  9
$INSBASE
 10
0.0
 20
0.0
 30
0.0
  9
$EXTMIN
 10
1e+20
 20
1e+20
 30
1e+20
  9
$EXTMAX
 10
-1e+20
 20
-1e+20
 30
-1e+20
  9
$LIMMIN
 10
0.0
 20
0.0
  9
$LIMMAX
 10
420.0
 20
297.0
  9
$ORTHOMODE
 70
0
  9
$REGENMODE
 70
1
  9
$FILLMODE
 70
1
  9
$DRAGMODE
 70
2
  9
$QTEXTMODE
 70
0
  9
$MIRRTEXT
 70
1
  9
$OSMODE
 70
20583
  9
$LTSCALE
 40
1.0
  9
$ATTMODE
 70
1
  9
$TEXTSIZE
 40
2.5
  9
$TRACEWID
 40
1.0
  9
$TEXTSTYLE
  7
OpenSans
  9
$CLAYER
  8
0
  9
$CELTYPE
  6
ByLayer
  9
$CECOLOR
 62
256
  9
$DIMSCALE
 40
1.0
  9
$DIMASZ
 40
0.175
  9
$DIMEXO
 40
0.125
  9
$DIMDLI
 40
3.75
  9
$DIMRND
 40
0.0
  9
$DIMDLE
 40
0.0
  9
$DIMEXE
 40
0.375
  9
$DIMTP
 40
0.0
  9
$DIMTM
 40
0.0
  9
$DIMTXT
 40
0.25
  9
$DIMCEN
 40
2.5
  9
$DIMTSZ
 40
0.0
  9
$DIMTOL
 70
0
  9
$DIMLIM
 70
0
  9
$DIMTIH
 70
0
  9
$DIMTOH
 70
0
  9
$DIMSE1
 70
0
  9
$DIMSE2
 70
0
  9
$DIMTAD
 70
1
  9
$DIMZIN
 70
12
  9
$DIMBLK
  1
ARCHTICK
  9
$DIMASO
 70
1
  9
$DIMSHO
 70
1
  9
$DIMPOST
  1

  9
$DIMAPOST
  1

  9
$DIMALT
 70
0
  9
$DIMALTD
 70
3
  9
$DIMALTF
 40
0.03937007874
  9
$DIMLFAC
 40
100.0
  9
$DIMTOFL
 70
1
  9
$DIMTVP
 40
0.0
  9
$DIMTIX
 70
0
  9
$DIMSOXD
 70
0
  9
$DIMSAH
 70
0
  9
$DIMBLK1
  1

  9
$DIMBLK2
  1

  9
$DIMSTYLE
  2
EZDXF
  9
$DIMCLRD
 70
0
  9
$DIMCLRE
 70
0
  9
$DIMCLRT
 70
0
  9
$DIMTFAC
 40
0.5
  9
$DIMGAP
 40
0.1
  9
$COORDS
 70
1
  9
$ATTDIA
 70
0
  9
$ATTREQ
 70
1
  9
$HANDLING
 70
1
  9
$LUNITS
 70
2
  9
$LUPREC
 70
4
  9
$SKETCHINC
 40
1.0
  9
$FILLETRAD
 40
10.0
  9
$AUNITS
 70
0
  9
$AUPREC
 70
2
  9
$MENU
  1
.
  9
$ELEVATION
 40
0.0
  9
$PELEVATION
 40
0.0
  9
$THICKNESS
 40
0.0
  9
$LIMCHECK
 70
0
  9
$CHAMFERA
 40
0.0
  9
$CHAMFERB
 40
0.0
  9
$SKPOLY
 70
0
  9
$TDCREATE
 40
2461314.479652778
  9
$TDUPDATE
 40
2461314.479652778
  9
$TDINDWG
 40
0.0
  9
$TDUSRTIMER
 40
0.0
  9
$USRTIMER
 70
1
  9
$ANGBASE
 50
0.0
  9
$ANGDIR
 70
0
  9
$PDMODE
 70
0
  9
$PDSIZE
 40
0.0
  9
$PLINEWID
 40
0.0
  9
$SPLFRAME
 70
0
  9
$SPLINETYPE
 70
6
  9
$SPLINESEGS
 70
8
  9
$HANDSEED
  5
139
  9
$SURFTAB1
 70
6
  9
$SURFTAB2
 70
6
  9
$SURFTYPE
 70
6
  9
$SURFU
 70
6
  9
$SURFV
 70
6
  9
$UCSNAME
  2

  9
$UCSORG
 10
0.0
 20
0.0
 30
0.0
  9
$UCSXDIR
 10
1.0
 20
0.0
 30
0.0
  9
$UCSYDIR
 10
0.0
 20
1.0
 30
0.0
  9
$PUCSNAME
  2

  9
$PUCSORG
 10
0.0
 20
0.0
 30
0.0
  9
$PUCSXDIR
 10
1.0
 20
0.0
 30
0.0
  9
$PUCSYDIR
 10
0.0
 20
1.0
 30
0.0
  9
$USERI1
 70
0
  9
$USERI2
 70
0
  9
$USERI3
 70
0
  9
$USERI4
 70
0
  9
$USERI5
 70
0
  9
$USERR1
 40
0.0
  9
$USERR2
 40
0.0
  9
$USERR3
 40
0.0
  9
$USERR4
 40
0.0
  9
$USERR5
 40
0.0
  9
$WORLDVIEW
 70
1
  9
$SHADEDGE
 70
3
  9
$SHADEDIF
 70
70
  9
$TILEMODE
 70
1
  9
$MAXACTVP
 70
64
  9
$PLIMCHECK
 70
0
  9
$PEXTMIN
 10
1e+20
 20
1e+20
 30
1e+20
  9
$PEXTMAX
 10
-1e+20
 20
-1e+20
 30
-1e+20
  9
$PLIMMIN
 10
0.0
 20
0.0
  9
$PLIMMAX
 10
420.0
 20
297.0
  9
$UNITMODE
 70
0
  9
$VISRETAIN
 70
1
  9
$PLINEGEN
 70
0
  9
$PSLTSCALE
 70
1
  0
ENDSEC
  0
SECTION
  2
TABLES
  0
TABLE
  2
VPORT
 70
1
  0
VPORT
  5
23
  2
*Active
 70
0
 10
0.0
 20
0.0
 11
1.0
 21
1.0
 12
0.0
 22
0.0
 13
0.0
 23
0.0
 14
0.5
 24
0.5
 15
0.5
 25
0.5
 16
0.0
 26
0.0
 36
1.0
 17
0.0
 27
0.0
 37
0.0
 40
1000.0
 41
1.34
 42
50.0
 43
0.0
 44
0.0
 50
0.0
 51
0.0
 71
0
 72
1000
 73
1
 74
3
 75
0
 76
0
 77
0
 78
0
  0
ENDTAB
  0
TABLE
  2
LTYPE
 70
21
  0
LTYPE
  5
24
  2
ByBlock
 70
0
  3

 72
65
 73
0
 40
0.0
  0
LTYPE
  5
25
  2
ByLayer
 70
0
  3

 72
65
 73
0
 40
0.0
  0
LTYPE
  5
26
  2
Continuous
 70
0
  3

 72
65
 73
0
 40
0.0
  0
LTYPE
  5
2D
  2
CENTER
 70
0
  3
Center ____ _ ____ _ ____ _ ____ _ ____ _ ____
 72
65
 73
4
 40
5.08
 49
3.175
 49
-0.635
 49
0.635
 49
-0.635
  0
LTYPE
  5
2E
  2
CENTERX2
 70
0
  3
Center (2x) ________  __  ________  __  ________
 72
65
 73
4
 40
8.89
 49
6.35
 49
-0.635
 49
1.27
 49
-0.635
  0
LTYPE
  5
2F
  2
CENTER2
 70
0
  3
Center (.5x) ____ _ ____ _ ____ _ ____ _ ____
 72
65
 73
4
 40
2.54
 49
1.587
 49
-0.318
 49
0.318
 49
-0.318
  0
LTYPE
  5
30
  2
DASHED
 70
0
  3
Dashed __ __ __ __ __ __ __ __ __ __ __ __ __ _
 72
65
 73
2
 40
1.524
 49
1.27
 49
-0.254
  0
LTYPE
  5
31
  2
DASHEDX2
 70
0
  3
Dashed (2x) ____  ____  ____  ____  ____  ____
 72
65
 73
2
 40
3.048
 49
2.54
 49
-0.508
  0
LTYPE
  5
32
  2
DASHED2
 70
0
  3
Dashed (.5x) _ _ _ _ _ _ _ _ _ _ _ _ _ _
 72
65
 73
2
 40
0.762
 49
0.635
 49
-0.127
  0
LTYPE
  5
33
  2
PHANTOM
 70
0
  3
Phantom ______  __  __  ______  __  __  ______
 72
65
 73
6
 40
6.35
 49
3.175
 49
-0.635
 49
0.635
 49
-0.635
 49
0.635
 49
-0.635
  0
LTYPE
  5
34
  2
PHANTOMX2
 70
0
  3
Phantom (2x)____________    ____    ____    ____________
 72
65
 73
6
 40
10.795
 49
6.35
 49
-0.635
 49
1.27
 49
-0.635
 49
1.27
 49
-0.635
  0
LTYPE
  5
35
  2
PHANTOM2
 70
0
  3
Phantom (.5x) ___ _ _ ___ _ _ ___ _ _ ___ _ _ ___
 72
65
 73
6
 40
3.175
 49
1.587
 49
-0.318
 49
0.318
 49
-0.318
 49
0.318
 49
-0.318
  0
LTYPE
  5
36
  2
DASHDOT
 70
0
  3
Dash dot __ . __ . __ . __ . __ . __ . __ . __
 72
65
 73
4
 40
3.556
 49
2.54
 49
-0.508
 49
0.0
 49
-0.508
  0
LTYPE
  5
37
  2
DASHDOTX2
 70
0
  3
Dash dot (2x) ____  .  ____  .  ____  .  ____
 72
65
 73
4
 40
6.096
 49
5.08
 49
-0.508
 49
0.0
 49
-0.508
  0
LTYPE
  5
38
  2
DASHDOT2
 70
0
  3
Dash dot (.5x) _ . _ . _ . _ . _ . _ . _ . _
 72
65
 73
4
 40
1.778
 49
1.27
 49
-0.254
 49
0.0
 49
-0.254
  0
LTYPE
  5
39
  2
DOT
 70
0
  3
Dot .  .  .  .  .  .  .  .  .  .  .  .  .  .  .  .
 72
65
 73
2
 40
0.508
 49
0.0
 49
-0.508
  0
LTYPE
  5
3A
  2
DOTX2
 70
0
  3
Dot (2x) .    .    .    .    .    .    .    . 
 72
65
 73
2
 40
1.016
 49
0.0
 49
-1.016
  0
LTYPE
  5
3B
  2
DOT2
 70
0
  3
Dot (.5) . . . . . . . . . . . . . . . . . . . 
 72
65
 73
2
 40
0.254
 49
0.0
 49
-0.254
  0
LTYPE
  5
3C
  2
DIVIDE
 70
0
  3
Divide __ . . __ . . __ . . __ . . __ . . __
 72
65
 73
6
 40
4.064
 49
2.54
 49
-0.508
 49
0.0
 49
-0.508
 49
0.0
 49
-0.508
  0
LTYPE
  5
3D
  2
DIVIDEX2
 70
0
  3
Divide (2x) ____  . .  ____  . .  ____  . .  ____
 72
65
 73
6
 40
6.604
 49
5.08
 49
-0.508
 49
0.0
 49
-0.508
 49
0.0
 49
-0.508
  0
LTYPE
  5
3E
  2
DIVIDE2
 70
0
  3
Divide(.5x) _ . _ . _ . _ . _ . _ . _ . _
 72
65
 73
6
 40
2.032
 49
1.27
 49
-0.254
 49
0.0
 49
-0.254
 49
0.0
 49
-0.254
  0
ENDTAB
  0
TABLE
  2
LAYER
 70
2
  0
LAYER
  5
27
  2
0
 70
0
 62
7
  6
Continuous
  0
LAYER
  5
28
  2
Defpoints
 70
0
 62
7
  6
Continuous
  0
ENDTAB
  0
TABLE
  2
STYLE
 70
26
  0
STYLE
  5
29
  2
Standard
 70
0
 40
0.0
 41
1.0
 50
0.0
 71
0
 42
2.5
  3
txt
  4

  0
STYLE
  5
3F
  2
OpenSans-Light
 70
0
 40
0.0
 41
1.0
 50
0.0
 71
0
 42
2.5
  3
OpenSans-Light.ttf
  4

  0
STYLE
  5
40
  2
OpenSans-Light-Italic
 70
0
 40
0.0
 41
1.0
 50
0.0
 71
0
 42
2.5
  3
OpenSans-LightItalic.ttf
  4

  0
STYLE
  5
41
  2
OpenSans
 70
0
 40
0.0
 41
1.0
 50
0.0
 71
0
 42
2.5
  3
OpenSans-Regular.ttf
  4

  0
STYLE
  5
42
  2
OpenSans-Italic
 70
0
 40
0.0
 41
1.0
 50
0.0
 71
0
 42
2.5
  3
OpenSans-Italic.ttf
  4

  0
STYLE
  5
43
  2
OpenSans-SemiBold
 70
0
 40
0.0
 41
1.0
 50
0.0
 71
0
 42
2.5
  3
OpenSans-SemiBold.ttf
  4

  0
STYLE
  5
44
  2
OpenSans-SemiBoldItalic
 70
0
 40
0.0
 41
1.0
 50
0.0
 71
0
 42
2.5
  3
OpenSans-SemiBoldItalic.ttf
  4

  0
STYLE
  5
45
  2
OpenSans-Bold
 70
0
 40
0.0
 41
1.0
 50
0.0
 71
0
 42
2.5
  3
OpenSans-Bold.ttf
  4

  0
STYLE
  5
46
  2
OpenSans-BoldItalic
 70
0
 40
0.0
 41
1.0
 50
0.0
 71
0
 42
2.5
  3
OpenSans-BoldItalic.ttf
  4

  0
STYLE
  5
47
  2
OpenSans-ExtraBold
 70
0
 40
0.0
 41
1.0
 50
0.0
 71
0
 42
2.5
  3
OpenSans-ExtraBold.ttf
  4

  0
STYLE
  5
48
  2
OpenSans-ExtraBoldItalic
 70
0
 40
0.0
 41
1.0
 50
0.0
 71
0
 42
2.5
  3
OpenSans-ExtraBoldItalic.ttf
  4

  0
STYLE
  5
49
  2
OpenSansCondensed-Bold
 70
0
 40
0.0
 41
1.0
 50
0.0
 71
0
 42
2.5
  3
OpenSansCondensed-Bold.ttf
  4

  0
STYLE
  5
4A
  2
OpenSansCondensed-Light
 70
0
 40
0.0
 41
1.0
 50
0.0
 71
0
 42
2.5
  3
OpenSansCondensed-Light.ttf
  4

  0
STYLE
  5
4B
  2
OpenSansCondensed-Italic
 70
0
 40
0.0
 41
1.0
 50
0.0
 71
0
 42
2.5
  3
OpenSansCondensed-LightItalic.ttf
  4

  0
STYLE
  5
4C
  2
LiberationSans
 70
0
 40
0.0
 41
1.0
 50
0.0
 71
0
 42
2.5
  3
LiberationSans-Regular.ttf
  4

  0
STYLE
  5
4D
  2
LiberationSans-Bold
 70
0
 40
0.0
 41
1.0
 50
0.0
 71
0
 42
2.5
  3
LiberationSans-Bold.ttf
  4

  0
STYLE
  5
4E
  2
LiberationSans-BoldItalic
 70
0
 40
0.0
 41
1.0
 50
0.0
 71
0
 42
2.5
  3
LiberationSans-BoldItalic.ttf
  4

  0
STYLE
  5
4F
  2
LiberationSans-Italic
 70
0
 40
0.0
 41
1.0
 50
0.0
 71
0
 42
2.5
  3
LiberationSans-Italic.ttf
  4

  0
STYLE
  5
50
  2
LiberationSerif
 70
0
 40
0.0
 41
1.0
 50
0.0
 71
0
 42
2.5
  3
LiberationSerif-Regular.ttf
  4

  0
STYLE
  5
51
  2
LiberationSerif-Bold
 70
0
 40
0.0
 41
1.0
 50
0.0
 71
0
 42
2.5
  3
LiberationSerif-Bold.ttf
  4

  0
STYLE
  5
52
  2
LiberationSerif-BoldItalic
 70
0
 40
0.0
 41
1.0
 50
0.0
 71
0
 42
2.5
  3
LiberationSerif-BoldItalic.ttf
  4

  0
STYLE
  5
53
  2
LiberationSerif-Italic
 70
0
 40
0.0
 41
1.0
 50
0.0
 71
0
 42
2.5
  3
LiberationSerif-Italic.ttf
  4

  0
STYLE
  5
54
  2
LiberationMono
 70
0
 40
0.0
 41
1.0
 50
0.0
 71
0
 42
2.5
  3
LiberationMono-Regular.ttf
  4

  0
STYLE
  5
55
  2
LiberationMono-Bold
 70
0
 40
0.0
 41
1.0
 50
0.0
 71
0
 42
2.5
  3
LiberationMono-Bold.ttf
  4

  0
STYLE
  5
56
  2
LiberationMono-BoldItalic
 70
0
 40
0.0
 41
1.0
 50
0.0
 71
0
 42
2.5
  3
LiberationMono-BoldItalic.ttf
  4

  0
STYLE
  5
57
  2
LiberationMono-Italic
 70
0
 40
0.0
 41
1.0
 50
0.0
 71
0
 42
2.5
  3
LiberationMono-Italic.ttf
  4

  0
ENDTAB
  0
TABLE
  2
VIEW
 70
0
  0
ENDTAB
  0
TABLE
  2
UCS
 70
0
  0
ENDTAB
  0
TABLE
  2
APPID
 70
3
  0
APPID
  5
2A
  2
ACAD
 70
0
  0
APPID
  5
137
  2
HATCHBACKGROUNDCOLOR
 70
0
  0
APPID
  5
138
  2
EZDXF
 70
0
  0
ENDTAB
  0
TABLE
  2
DIMSTYLE
 70
12
  0
DIMSTYLE
105
2B
  2
Standard
 70
0
  3

  4

  5

  6

  7

 40
1.0
 41
2.5
 42
0.625
 43
3.75
 44
1.25
 45
0.0
 46
0.0
 47
0.0
 48
0.0
140
2.5
141
2.5
142
0.0
143
0.03937007874
144
1.0
145
0.0
146
1.0
147
0.625
 71
0
 72
0
 73
0
 74
0
 75
0
 76
0
 77
1
 78
8
170
0
171
3
172
1
173
0
174
0
175
0
176
0
177
0
178
0
  0
DIMSTYLE
105
71
  2
EZDXF
 70
0
  3

  4

  5
ARCHTICK
  6

  7

 40
1.0
 41
0.175
 42
0.125
 43
3.75
 44
0.375
 45
0.0
 46
0.0
 47
0.0
 48
0.0
140
0.25
141
2.5
142
0.0
143
0.03937007874
144
100.0
145
0.0
146
0.5
147
0.1
 71
0
 72
0
 73
0
 74
0
 75
0
 76
0
 77
1
 78
12
170
0
171
3
172
1
173
0
174
0
175
0
176
0
177
0
178
0
  0
DIMSTYLE
105
7D
  2
EZ_M_100_H25_CM
 70
0
  3

  4

  5

  6

  7

 40
1.0
 41
0.25
 42
0.125
 43
3.75
 44
0.375
 45
0.0
 46
0.0
 47
0.0
 48
0.0
140
0.25
141
2.5
142
0.125
143
0.03937007874
144
100.0
145
0.0
146
0.5
147
0.1
 71
0
 72
0
 73
0
 74
0
 75
0
 76
0
 77
1
 78
12
170
0
171
3
172
1
173
0
174
0
175
0
176
0
177
0
178
0
  0
DIMSTYLE
105
7E
  2
EZ_M_50_H25_CM
 70
0
  3

  4

  5

  6

  7

 40
1.0
 41
0.125
 42
0.0625
 43
3.75
 44
0.1875
 45
0.0
 46
0.0
 47
0.0
 48
0.0
140
0.125
141
2.5
142
0.0625
143
0.03937007874
144
100.0
145
0.0
146
0.5
147
0.05
 71
0
 72
0
 73
0
 74
0
 75
0
 76
0
 77
1
 78
12
170
0
171
3
172
1
173
0
174
0
175
0
176
0
177
0
178
0
  0
DIMSTYLE
105
7F
  2
EZ_M_25_H25_CM
 70
0
  3

  4

  5

  6

  7

 40
1.0
 41
0.0625
 42
0.03125
 43
3.75
 44
0.09375
 45
0.0
 46
0.0
 47
0.0
 48
0.0
140
0.0625
141
2.5
142
0.03125
143
0.03937007874
144
100.0
145
0.0
146
0.5
147
0.025
 71
0
 72
0
 73
0
 74
0
 75
0
 76
0
 77
1
 78
12
170
0
171
3
172
1
173
0
174
0
175
0
176
0
177
0
178
0
  0
DIMSTYLE
105
80
  2
EZ_M_20_H25_CM
 70
0
  3

  4

  5

  6

  7

 40
1.0
 41
0.05
 42
0.025
 43
3.75
 44
0.07500000000000001
 45
0.0
 46
0.0
 47
0.0
 48
0.0
140
0.05
141
2.5
142
0.025
143
0.03937007874
144
100.0
145
0.0
146
0.5
147
0.020000000000000004
 71
0
 72
0
 73
0
 74
0
 75
0
 76
0
 77
1
 78
12
170
0
171
3
172
1
173
0
174
0
175
0
176
0
177
0
178
0
  0
DIMSTYLE
105
81
  2
EZ_M_10_H25_CM
 70
0
  3

  4

  5

  6

  7

 40
1.0
 41
0.025
 42
0.0125
 43
3.75
 44
0.037500000000000006
 45
0.0
 46
0.0
 47
0.0
 48
0.0
140
0.025
141
2.5
142
0.0125
143
0.03937007874
144
100.0
145
0.0
146
0.5
147
0.010000000000000002
 71
0
 72
0
 73
0
 74
0
 75
0
 76
0
 77
1
 78
12
170
0
171
3
172
1
173
0
174
0
175
0
176
0
177
0
178
0
  0
DIMSTYLE
105
82
  2
EZ_M_5_H25_CM
 70
0
  3

  4

  5

  6

  7

 40
1.0
 41
0.0125
 42
0.00625
 43
3.75
 44
0.018750000000000003
 45
0.0
 46
0.0
 47
0.0
 48
0.0
140
0.0125
141
2.5
142
0.00625
143
0.03937007874
144
100.0
145
0.0
146
0.5
147
0.005000000000000001
 71
0
 72
0
 73
0
 74
0
 75
0
 76
0
 77
1
 78
12
170
0
171
3
172
1
173
0
174
0
175
0
176
0
177
0
178
0
  0
DIMSTYLE
105
83
  2
EZ_M_1_H25_CM
 70
0
  3

  4

  5

  6

  7

 40
1.0
 41
0.0025
 42
0.00125
 43
3.75
 44
0.00375
 45
0.0
 46
0.0
 47
0.0
 48
0.0
140
0.0025
141
2.5
142
0.00125
143
0.03937007874
144
100.0
145
0.0
146
0.5
147
0.001
 71
0
 72
0
 73
0
 74
0
 75
0
 76
0
 77
1
 78
12
170
0
171
3
172
1
173
0
174
0
175
0
176
0
177
0
178
0
  0
DIMSTYLE
105
84
  2
EZ_RADIUS
 70
0
  3

  4

  5
CLOSEDBLANK
  6

  7

 40
1.0
 41
0.25
 42
0.125
 43
3.75
 44
0.375
 45
0.0
 46
0.0
 47
0.0
 48
0.0
140
0.25
141
0.0
142
0.0
143
0.03937007874
144
100.0
145
0.0
146
0.5
147
0.1
 71
0
 72
0
 73
0
 74
0
 75
0
 76
0
 77
1
 78
12
170
0
171
3
172
0
173
0
174
0
175
0
176
0
177
0
178
0
  0
DIMSTYLE
105
8D
  2
EZ_RADIUS_INSIDE
 70
0
  3

  4

  5
CLOSEDBLANK
  6

  7

 40
1.0
 41
0.25
 42
0.125
 43
3.75
 44
0.375
 45
0.0
 46
0.0
 47
0.0
 48
0.0
140
0.25
141
0.0
142
0.0
143
0.03937007874
144
100.0
145
0.0
146
0.5
147
0.1
 71
0
 72
0
 73
0
 74
0
 75
0
 76
0
 77
0
 78
12
170
0
171
3
172
0
173
0
174
1
175
0
176
0
177
0
178
0
  0
DIMSTYLE
105
8E
  2
EZ_CURVED
 70
0
  3

  4

  5

  6

  7

 40
1.0
 41
0.25
 42
0.125
 43
3.75
 44
0.375
 45
0.0
 46
0.0
 47
0.0
 48
0.0
140
0.25
141
2.5
142
0.0
143
0.03937007874
144
100.0
145
0.0
146
0.5
147
0.1
 71
0
 72
0
 73
0
 74
0
 75
0
 76
0
 77
1
 78
12
170
0
171
3
172
1
173
0
174
0
175
0
176
0
177
0
178
0
  0
ENDTAB
  0
ENDSEC
  0
SECTION
  2
BLOCKS
  0
BLOCK
  5
18
  8
0
  2
$Model_Space
 70
0
 10
0.0
 20
0.0
 30
0.0
  3
$Model_Space
  1

1001
EZDXF
1000
CREATED_BY_EZDXF
1000
1.4.4 @ 2026-09-30T11:30:42.278838+00:00
1000
WRITTEN_BY_EZDXF
1000
1.4.4 @ 2026-09-30T11:30:42.286224+00:00
  0
ENDBLK
  5
19
  8
0
  0
BLOCK
  5
1C
  8
0
  2
$Paper_Space
 70
0
 10
0.0
 20
0.0
 30
0.0
  3
$Paper_Space
  1

  0
ENDBLK
  5
1D
  8
0
  0
BLOCK
  5
73
  8
0
  2
_ARCHTICK
 70
0
 10
0.0
 20
0.0
 30
0.0
  3
_ARCHTICK
  1

  0
POLYLINE
  5
75
  8
0
  6
BYBLOCK
 62
0
 66
1
 10
0.0
 20
0.0
 30
0.0
 70
0
 40
0.15
 41
0.15
  0
VERTEX
  5
77
  8
0
  6
BYBLOCK
 10
-0.5
 20
-0.5
 30
0.0
 70
0
  0
VERTEX
  5
78
  8
0
  6
BYBLOCK
 10
0.5
 20
0.5
 30
0.0
 70
0
  0
SEQEND
  5
76
  8
0
  0
ENDBLK
  5
74
  8
0
  0
BLOCK
  5
7A
  8
0
  2
_CLOSEDFILLED
 70
0
 10
0.0
 20
0.0
 30
0.0
  3
_CLOSEDFILLED
  1

  0
SOLID
  5
7C
  8
0
  6
BYBLOCK
 62
0
 10
-1.0
 20
0.16439898372402537
 30
0.0
 11
0.0
 21
0.0
 31
0.0
 12
-1.0
 22
-0.16439898372402537
 32
0.0
 13
-1.0
 23
-0.16439898372402537
 33
0.0
  0
ENDBLK
  5
7B
  8
0
  0
BLOCK
  5
86
  8
0
  2
_CLOSEDBLANK
 70
0
 10
0.0
 20
0.0
 30
0.0
  3
_CLOSEDBLANK
  1

  0
POLYLINE
  5
88
  8
0
  6
BYBLOCK
 62
0
 66
1
 10
0.0
 20
0.0
 30
0.0
 70
1
  0
VERTEX
  5
8A
  8
0
  6
BYBLOCK
 10
-1.0
 20
0.16439898372402537
 30
0.0
 70
0
  0
VERTEX
  5
8B
  8
0
  6
BYBLOCK
 10
0.0
 20
0.0
 30
0.0
 70
0
  0
VERTEX
  5
8C
  8
0
  6
BYBLOCK
 10
-1.0
 20
-0.16439898372402537
 30
0.0
 70
0
  0
SEQEND
  5
89
  8
0
  0
ENDBLK
  5
87
  8
0
  0
ENDSEC
  0
SECTION
  2
ENTITIES
  0
LINE
  5
8F
  8
0
  6
CONTINUOUS
 62
7
 10
1200.0
 20
3600.0
 30
0.0
 11
6900.0
 21
3600.0
 31
0.0
  0
LINE
  5
90
  8
0
  6
CONTINUOUS
 62
7
 10
1800.0
 20
3600.0
 30
0.0
 11
6300.0
 21
3600.0
 31
0.0
  0
LINE
  5
91
  8
0
  6
CONTINUOUS
 62
7
 10
6300.0
 20
3600.0
 30
0.0
 11
6300.0
 21
6070.0
 31
0.0
  0
LINE
  5
92
  8
0
  6
CONTINUOUS
 62
7
 10
6300.0
 20
6070.0
 30
0.0
 11
1800.0
 21
6070.0
 31
0.0
  0
LINE
  5
93
  8
0
  6
CONTINUOUS
 62
7
 10
1800.0
 20
6070.0
 30
0.0
 11
1800.0
 21
3600.0
 31
0.0
  0
LINE
  5
94
  8
0
  6
CONTINUOUS
 62
3
 10
2160.0
 20
3600.0
 30
0.0
 11
2280.0
 21
3720.0
 31
0.0
  0
LINE
  5
95
  8
0
  6
CONTINUOUS
 62
3
 10
2040.0
 20
3600.0
 30
0.0
 11
2280.0
 21
3840.0
 31
0.0
  0
LINE
  5
96
  8
0
  6
CONTINUOUS
 62
3
 10
1920.0
 20
3600.0
 30
0.0
 11
2280.0
 21
3960.0
 31
0.0
  0
LINE
  5
97
  8
0
  6
CONTINUOUS
 62
3
 10
1800.0
 20
3600.0
 30
0.0
 11
2280.0
 21
4080.0
 31
0.0
  0
LINE
  5
98
  8
0
  6
CONTINUOUS
 62
3
 10
1800.0
 20
3720.0
 30
0.0
 11
2280.0
 21
4200.0
 31
0.0
  0
LINE
  5
99
  8
0
  6
CONTINUOUS
 62
3
 10
1800.0
 20
3840.0
 30
0.0
 11
2280.0
 21
4320.0
 31
0.0
  0
LINE
  5
9A
  8
0
  6
CONTINUOUS
 62
3
 10
1800.0
 20
3960.0
 30
0.0
 11
2280.0
 21
4440.0
 31
0.0
  0
LINE
  5
9B
  8
0
  6
CONTINUOUS
 62
3
 10
1800.0
 20
4080.0
 30
0.0
 11
2280.0
 21
4560.0
 31
0.0
  0
LINE
  5
9C
  8
0
  6
CONTINUOUS
 62
3
 10
1800.0
 20
4200.0
 30
0.0
 11
2280.0
 21
4680.0
 31
0.0
  0
LINE
  5
9D
  8
0
  6
CONTINUOUS
 62
3
 10
1800.0
 20
4320.0
 30
0.0
 11
2280.0
 21
4800.0
 31
0.0
  0
LINE
  5
9E
  8
0
  6
CONTINUOUS
 62
3
 10
1800.0
 20
4440.0
 30
0.0
 11
2280.0
 21
4920.0
 31
0.0
  0
LINE
  5
9F
  8
0
  6
CONTINUOUS
 62
3
 10
1800.0
 20
4560.0
 30
0.0
 11
2280.0
 21
5040.0
 31
0.0
  0
LINE
  5
A0
  8
0
  6
CONTINUOUS
 62
3
 10
1800.0
 20
4680.0
 30
0.0
 11
2280.0
 21
5160.0
 31
0.0
  0
LINE
  5
A1
  8
0
  6
CONTINUOUS
 62
3
 10
1800.0
 20
4800.0
 30
0.0
 11
2280.0
 21
5280.0
 31
0.0
  0
LINE
  5
A2
  8
0
  6
CONTINUOUS
 62
3
 10
1800.0
 20
4920.0
 30
0.0
 11
2280.0
 21
5400.0
 31
0.0
  0
LINE
  5
A3
  8
0
  6
CONTINUOUS
 62
3
 10
1800.0
 20
5040.0
 30
0.0
 11
2280.0
 21
5520.0
 31
0.0
  0
LINE
  5
A4
  8
0
  6
CONTINUOUS
 62
3
 10
1800.0
 20
5160.0
 30
0.0
 11
2280.0
 21
5640.0
 31
0.0
  0
LINE
  5
A5
  8
0
  6
CONTINUOUS
 62
3
 10
1800.0
 20
5280.0
 30
0.0
 11
2280.0
 21
5760.0
 31
0.0
  0
LINE
  5
A6
  8
0
  6
CONTINUOUS
 62
3
 10
1800.0
 20
5400.0
 30
0.0
 11
2280.0
 21
5880.0
 31
0.0
  0
LINE
  5
A7
  8
0
  6
CONTINUOUS
 62
3
 10
1800.0
 20
5520.0
 30
0.0
 11
2280.0
 21
6000.0
 31
0.0
  0
LINE
  5
A8
  8
0
  6
CONTINUOUS
 62
3
 10
1800.0
 20
5640.0
 30
0.0
 11
2230.0
 21
6070.0
 31
0.0
  0
LINE
  5
A9
  8
0
  6
CONTINUOUS
 62
3
 10
1800.0
 20
5760.0
 30
0.0
 11
2110.0
 21
6070.0
 31
0.0
  0
LINE
  5
AA
  8
0
  6
CONTINUOUS
 62
3
 10
1800.0
 20
5880.0
 30
0.0
 11
1990.0
 21
6070.0
 31
0.0
  0
LINE
  5
AB
  8
0
  6
CONTINUOUS
 62
3
 10
1800.0
 20
6000.0
 30
0.0
 11
1870.0
 21
6070.0
 31
0.0
  0
LINE
  5
AC
  8
0
  6
CONTINUOUS
 62
3
 10
6180.0
 20
3600.0
 30
0.0
 11
6300.0
 21
3720.0
 31
0.0
  0
LINE
  5
AD
  8
0
  6
CONTINUOUS
 62
3
 10
6060.0
 20
3600.0
 30
0.0
 11
6300.0
 21
3840.0
 31
0.0
  0
LINE
  5
AE
  8
0
  6
CONTINUOUS
 62
3
 10
5940.0
 20
3600.0
 30
0.0
 11
6300.0
 21
3960.0
 31
0.0
  0
LINE
  5
AF
  8
0
  6
CONTINUOUS
 62
3
 10
5820.0
 20
3600.0
 30
0.0
 11
6300.0
 21
4080.0
 31
0.0
  0
LINE
  5
B0
  8
0
  6
CONTINUOUS
 62
3
 10
5820.0
 20
3720.0
 30
0.0
 11
6300.0
 21
4200.0
 31
0.0
  0
LINE
  5
B1
  8
0
  6
CONTINUOUS
 62
3
 10
5820.0
 20
3840.0
 30
0.0
 11
6300.0
 21
4320.0
 31
0.0
  0
LINE
  5
B2
  8
0
  6
CONTINUOUS
 62
3
 10
5820.0
 20
3960.0
 30
0.0
 11
6300.0
 21
4440.0
 31
0.0
  0
LINE
  5
B3
  8
0
  6
CONTINUOUS
 62
3
 10
5820.0
 20
4080.0
 30
0.0
 11
6300.0
 21
4560.0
 31
0.0
  0
LINE
  5
B4
  8
0
  6
CONTINUOUS
 62
3
 10
5820.0
 20
4200.0
 30
0.0
 11
6300.0
 21
4680.0
 31
0.0
  0
LINE
  5
B5
  8
0
  6
CONTINUOUS
 62
3
 10
5820.0
 20
4320.0
 30
0.0
 11
6300.0
 21
4800.0
 31
0.0
  0
LINE
  5
B6
  8
0
  6
CONTINUOUS
 62
3
 10
5820.0
 20
4440.0
 30
0.0
 11
6300.0
 21
4920.0
 31
0.0
  0
LINE
  5
B7
  8
0
  6
CONTINUOUS
 62
3
 10
5820.0
 20
4560.0
 30
0.0
 11
6300.0
 21
5040.0
 31
0.0
  0
LINE
  5
B8
  8
0
  6
CONTINUOUS
 62
3
 10
5820.0
 20
4680.0
 30
0.0
 11
6300.0
 21
5160.0
 31
0.0
  0
LINE
  5
B9
  8
0
  6
CONTINUOUS
 62
3
 10
5820.0
 20
4800.0
 30
0.0
 11
6300.0
 21
5280.0
 31
0.0
  0
LINE
  5
BA
  8
0
  6
CONTINUOUS
 62
3
 10
5820.0
 20
4920.0
 30
0.0
 11
6300.0
 21
5400.0
 31
0.0
  0
LINE
  5
BB
  8
0
  6
CONTINUOUS
 62
3
 10
5820.0
 20
5040.0
 30
0.0
 11
6300.0
 21
5520.0
 31
0.0
  0
LINE
  5
BC
  8
0
  6
CONTINUOUS
 62
3
 10
5820.0
 20
5160.0
 30
0.0
 11
6300.0
 21
5640.0
 31
0.0
  0
LINE
  5
BD
  8
0
  6
CONTINUOUS
 62
3
 10
5820.0
 20
5280.0
 30
0.0
 11
6300.0
 21
5760.0
 31
0.0
  0
LINE
  5
BE
  8
0
  6
CONTINUOUS
 62
3
 10
5820.0
 20
5400.0
 30
0.0
 11
6300.0
 21
5880.0
 31
0.0
  0
LINE
  5
BF
  8
0
  6
CONTINUOUS
 62
3
 10
5820.0
 20
5520.0
 30
0.0
 11
6300.0
 21
6000.0
 31
0.0
  0
LINE
  5
C0
  8
0
  6
CONTINUOUS
 62
3
 10
5820.0
 20
5640.0
 30
0.0
 11
6250.0
 21
6070.0
 31
0.0
  0
LINE
  5
C1
  8
0
  6
CONTINUOUS
 62
3
 10
5820.0
 20
5760.0
 30
0.0
 11
6130.0
 21
6070.0
 31
0.0
  0
LINE
  5
C2
  8
0
  6
CONTINUOUS
 62
3
 10
5820.0
 20
5880.0
 30
0.0
 11
6010.0
 21
6070.0
 31
0.0
  0
LINE
  5
C3
  8
0
  6
CONTINUOUS
 62
3
 10
5820.0
 20
6000.0
 30
0.0
 11
5890.0
 21
6070.0
 31
0.0
  0
LINE
  5
C4
  8
0
  6
CONTINUOUS
 62
5
 10
2280.0
 20
3600.0
 30
0.0
 11
5820.0
 21
3600.0
 31
0.0
  0
LINE
  5
C5
  8
0
  6
CONTINUOUS
 62
5
 10
5820.0
 20
3600.0
 30
0.0
 11
5820.0
 21
5565.0
 31
0.0
  0
LINE
  5
C6
  8
0
  6
CONTINUOUS
 62
5
 10
5820.0
 20
5565.0
 30
0.0
 11
2280.0
 21
5565.0
 31
0.0
  0
LINE
  5
C7
  8
0
  6
CONTINUOUS
 62
5
 10
2280.0
 20
5565.0
 30
0.0
 11
2280.0
 21
3600.0
 31
0.0
  0
LINE
  5
C8
  8
0
  6
CONTINUOUS
 62
5
 10
2320.0
 20
3600.0
 30
0.0
 11
5780.0
 21
3600.0
 31
0.0
  0
LINE
  5
C9
  8
0
  6
CONTINUOUS
 62
5
 10
5780.0
 20
3600.0
 30
0.0
 11
5780.0
 21
5525.0
 31
0.0
  0
LINE
  5
CA
  8
0
  6
CONTINUOUS
 62
5
 10
5780.0
 20
5525.0
 30
0.0
 11
2320.0
 21
5525.0
 31
0.0
  0
LINE
  5
CB
  8
0
  6
CONTINUOUS
 62
5
 10
2320.0
 20
5525.0
 30
0.0
 11
2320.0
 21
3600.0
 31
0.0
  0
LINE
  5
CC
  8
0
  6
CONTINUOUS
 62
5
 10
3450.0
 20
3600.0
 30
0.0
 11
3450.0
 21
5525.0
 31
0.0
  0
LINE
  5
CD
  8
0
  6
CONTINUOUS
 62
5
 10
4650.0
 20
3600.0
 30
0.0
 11
4650.0
 21
5525.0
 31
0.0
  0
LINE
  5
CE
  8
0
  6
CONTINUOUS
 62
5
 10
4500.0
 20
4282.5
 30
0.0
 11
3600.0
 21
4282.5
 31
0.0
  0
LINE
  5
CF
  8
0
  6
CONTINUOUS
 62
5
 10
3600.0
 20
4282.5
 30
0.0
 11
3750.0
 21
4362.5
 31
0.0
  0
LINE
  5
D0
  8
0
  6
CONTINUOUS
 62
5
 10
3600.0
 20
4282.5
 30
0.0
 11
3750.0
 21
4202.5
 31
0.0
  0
LINE
  5
D1
  8
0
  6
DASHED
 62
6
 10
2280.0
 20
5565.0
 30
0.0
 11
5820.0
 21
5565.0
 31
0.0
  0
LINE
  5
D2
  8
0
  6
DASHED
 62
6
 10
5820.0
 20
5565.0
 30
0.0
 11
5820.0
 21
6070.0
 31
0.0
  0
LINE
  5
D3
  8
0
  6
DASHED
 62
6
 10
5820.0
 20
6070.0
 30
0.0
 11
2280.0
 21
6070.0
 31
0.0
  0
LINE
  5
D4
  8
0
  6
DASHED
 62
6
 10
2280.0
 20
6070.0
 30
0.0
 11
2280.0
 21
5565.0
 31
0.0
  0
LINE
  5
D5
  8
0
  6
DASHED
 62
6
 10
2280.0
 20
5565.0
 30
0.0
 11
4730.0
 21
5565.0
 31
0.0
  0
LINE
  5
D6
  8
0
  6
DASHED
 62
6
 10
4730.0
 20
5565.0
 30
0.0
 11
4730.0
 21
6000.0
 31
0.0
  0
LINE
  5
D7
  8
0
  6
DASHED
 62
6
 10
4730.0
 20
6000.0
 30
0.0
 11
2280.0
 21
6000.0
 31
0.0
  0
LINE
  5
D8
  8
0
  6
DASHED
 62
6
 10
2280.0
 20
6000.0
 30
0.0
 11
2280.0
 21
5565.0
 31
0.0
  0
LINE
  5
D9
  8
0
  6
DASHED
 62
1
 10
2255.0
 20
3600.0
 30
0.0
 11
2255.0
 21
5590.0
 31
0.0
  0
LINE
  5
DA
  8
0
  6
DASHED
 62
1
 10
2255.0
 20
5590.0
 30
0.0
 11
5845.0
 21
5590.0
 31
0.0
  0
LINE
  5
DB
  8
0
  6
DASHED
 62
1
 10
5845.0
 20
5590.0
 30
0.0
 11
5845.0
 21
3600.0
 31
0.0
  0
LINE
  5
DC
  8
0
  6
CONTINUOUS
 62
4
 10
1800.0
 20
3660.0
 30
0.0
 11
2280.0
 21
3660.0
 31
0.0
  0
LINE
  5
DD
  8
0
  6
CONTINUOUS
 62
4
 10
1800.0
 20
3640.0
 30
0.0
 11
2280.0
 21
3640.0
 31
0.0
  0
LINE
  5
DE
  8
0
  6
CONTINUOUS
 62
4
 10
5820.0
 20
3660.0
 30
0.0
 11
6300.0
 21
3660.0
 31
0.0
  0
LINE
  5
DF
  8
0
  6
CONTINUOUS
 62
4
 10
5820.0
 20
3640.0
 30
0.0
 11
6300.0
 21
3640.0
 31
0.0
  0
LINE
  5
E0
  8
0
  6
CONTINUOUS
 62
7
 10
2040.0
 20
5452.5
 30
0.0
 11
1500.0
 21
6420.0
 31
0.0
  0
LINE
  5
E1
  8
0
  6
CONTINUOUS
 62
7
 10
1500.0
 20
6420.0
 30
0.0
 11
650.0
 21
6420.0
 31
0.0
  0
LINE
  5
E2
  8
0
  6
CONTINUOUS
 62
7
 10
6060.0
 20
3650.0
 30
0.0
 11
6600.0
 21
3250.0
 31
0.0
  0
LINE
  5
E3
  8
0
  6
CONTINUOUS
 62
7
 10
6600.0
 20
3250.0
 30
0.0
 11
7365.0
 21
3250.0
 31
0.0
  0
LINE
  5
E4
  8
0
  6
CONTINUOUS
 62
7
 10
2255.0
 20
4287.75
 30
0.0
 11
1500.0
 21
4537.75
 31
0.0
  0
LINE
  5
E5
  8
0
  6
CONTINUOUS
 62
7
 10
1500.0
 20
4537.75
 30
0.0
 11
820.0
 21
4537.75
 31
0.0
  0
LINE
  5
E6
  8
0
  6
CONTINUOUS
 62
3
 10
1800.0
 20
3150.0
 30
0.0
 11
2280.0
 21
3150.0
 31
0.0
  0
LINE
  5
E7
  8
0
  6
CONTINUOUS
 62
3
 10
1800.0
 20
3210.0
 30
0.0
 11
1800.0
 21
3090.0
 31
0.0
  0
LINE
  5
E8
  8
0
  6
CONTINUOUS
 62
3
 10
1760.0
 20
3110.0
 30
0.0
 11
1840.0
 21
3190.0
 31
0.0
  0
LINE
  5
E9
  8
0
  6
CONTINUOUS
 62
3
 10
2280.0
 20
3210.0
 30
0.0
 11
2280.0
 21
3090.0
 31
0.0
  0
LINE
  5
EA
  8
0
  6
CONTINUOUS
 62
3
 10
2240.0
 20
3110.0
 30
0.0
 11
2320.0
 21
3190.0
 31
0.0
  0
LINE
  5
EB
  8
0
  6
CONTINUOUS
 62
3
 10
2280.0
 20
3150.0
 30
0.0
 11
5820.0
 21
3150.0
 31
0.0
  0
LINE
  5
EC
  8
0
  6
CONTINUOUS
 62
3
 10
2280.0
 20
3210.0
 30
0.0
 11
2280.0
 21
3090.0
 31
0.0
  0
LINE
  5
ED
  8
0
  6
CONTINUOUS
 62
3
 10
2240.0
 20
3110.0
 30
0.0
 11
2320.0
 21
3190.0
 31
0.0
  0
LINE
  5
EE
  8
0
  6
CONTINUOUS
 62
3
 10
5820.0
 20
3210.0
 30
0.0
 11
5820.0
 21
3090.0
 31
0.0
  0
LINE
  5
EF
  8
0
  6
CONTINUOUS
 62
3
 10
5780.0
 20
3110.0
 30
0.0
 11
5860.0
 21
3190.0
 31
0.0
  0
LINE
  5
F0
  8
0
  6
CONTINUOUS
 62
3
 10
5820.0
 20
3150.0
 30
0.0
 11
6300.0
 21
3150.0
 31
0.0
  0
LINE
  5
F1
  8
0
  6
CONTINUOUS
 62
3
 10
5820.0
 20
3210.0
 30
0.0
 11
5820.0
 21
3090.0
 31
0.0
  0
LINE
  5
F2
  8
0
  6
CONTINUOUS
 62
3
 10
5780.0
 20
3110.0
 30
0.0
 11
5860.0
 21
3190.0
 31
0.0
  0
LINE
  5
F3
  8
0
  6
CONTINUOUS
 62
3
 10
6300.0
 20
3210.0
 30
0.0
 11
6300.0
 21
3090.0
 31
0.0
  0
LINE
  5
F4
  8
0
  6
CONTINUOUS
 62
3
 10
6260.0
 20
3110.0
 30
0.0
 11
6340.0
 21
3190.0
 31
0.0
  0
LINE
  5
F5
  8
0
  6
CONTINUOUS
 62
3
 10
1800.0
 20
2850.0
 30
0.0
 11
6300.0
 21
2850.0
 31
0.0
  0
LINE
  5
F6
  8
0
  6
CONTINUOUS
 62
3
 10
1800.0
 20
2910.0
 30
0.0
 11
1800.0
 21
2790.0
 31
0.0
  0
LINE
  5
F7
  8
0
  6
CONTINUOUS
 62
3
 10
1760.0
 20
2810.0
 30
0.0
 11
1840.0
 21
2890.0
 31
0.0
  0
LINE
  5
F8
  8
0
  6
CONTINUOUS
 62
3
 10
6300.0
 20
2910.0
 30
0.0
 11
6300.0
 21
2790.0
 31
0.0
  0
LINE
  5
F9
  8
0
  6
CONTINUOUS
 62
3
 10
6260.0
 20
2810.0
 30
0.0
 11
6340.0
 21
2890.0
 31
0.0
  0
LINE
  5
FA
  8
0
  6
CONTINUOUS
 62
3
 10
6750.0
 20
3600.0
 30
0.0
 11
6750.0
 21
5565.0
 31
0.0
  0
LINE
  5
FB
  8
0
  6
CONTINUOUS
 62
3
 10
6690.0
 20
3600.0
 30
0.0
 11
6810.0
 21
3600.0
 31
0.0
  0
LINE
  5
FC
  8
0
  6
CONTINUOUS
 62
3
 10
6710.0
 20
3560.0
 30
0.0
 11
6790.0
 21
3640.0
 31
0.0
  0
LINE
  5
FD
  8
0
  6
CONTINUOUS
 62
3
 10
6690.0
 20
5565.0
 30
0.0
 11
6810.0
 21
5565.0
 31
0.0
  0
LINE
  5
FE
  8
0
  6
CONTINUOUS
 62
3
 10
6710.0
 20
5525.0
 30
0.0
 11
6790.0
 21
5605.0
 31
0.0
  0
LINE
  5
FF
  8
0
  6
CONTINUOUS
 62
3
 10
7100.0
 20
3600.0
 30
0.0
 11
7100.0
 21
6070.0
 31
0.0
  0
LINE
  5
100
  8
0
  6
CONTINUOUS
 62
3
 10
7040.0
 20
3600.0
 30
0.0
 11
7160.0
 21
3600.0
 31
0.0
  0
LINE
  5
101
  8
0
  6
CONTINUOUS
 62
3
 10
7060.0
 20
3560.0
 30
0.0
 11
7140.0
 21
3640.0
 31
0.0
  0
LINE
  5
102
  8
0
  6
CONTINUOUS
 62
3
 10
7040.0
 20
6070.0
 30
0.0
 11
7160.0
 21
6070.0
 31
0.0
  0
LINE
  5
103
  8
0
  6
CONTINUOUS
 62
3
 10
7060.0
 20
6030.0
 30
0.0
 11
7140.0
 21
6110.0
 31
0.0
  0
LINE
  5
104
  8
0
  6
CONTINUOUS
 62
3
 10
1450.0
 20
5565.0
 30
0.0
 11
1450.0
 21
6000.0
 31
0.0
  0
LINE
  5
105
  8
0
  6
CONTINUOUS
 62
3
 10
1390.0
 20
5565.0
 30
0.0
 11
1510.0
 21
5565.0
 31
0.0
  0
LINE
  5
106
  8
0
  6
CONTINUOUS
 62
3
 10
1410.0
 20
5525.0
 30
0.0
 11
1490.0
 21
5605.0
 31
0.0
  0
LINE
  5
107
  8
0
  6
CONTINUOUS
 62
3
 10
1390.0
 20
6000.0
 30
0.0
 11
1510.0
 21
6000.0
 31
0.0
  0
LINE
  5
108
  8
0
  6
CONTINUOUS
 62
3
 10
1410.0
 20
5960.0
 30
0.0
 11
1490.0
 21
6040.0
 31
0.0
  0
LINE
  5
109
  8
0
  6
CONTINUOUS
 62
7
 10
0.0
 20
0.0
 30
0.0
 11
12600.0
 21
0.0
 31
0.0
  0
LINE
  5
10A
  8
0
  6
CONTINUOUS
 62
7
 10
12600.0
 20
0.0
 30
0.0
 11
12600.0
 21
8910.0
 31
0.0
  0
LINE
  5
10B
  8
0
  6
CONTINUOUS
 62
7
 10
12600.0
 20
8910.0
 30
0.0
 11
0.0
 21
8910.0
 31
0.0
  0
LINE
  5
10C
  8
0
  6
CONTINUOUS
 62
7
 10
0.0
 20
8910.0
 30
0.0
 11
0.0
 21
0.0
 31
0.0
  0
LINE
  5
10D
  8
0
  6
CONTINUOUS
 62
7
 10
7200.0
 20
0.0
 30
0.0
 11
12600.0
 21
0.0
 31
0.0
  0
LINE
  5
10E
  8
0
  6
CONTINUOUS
 62
7
 10
7200.0
 20
900.0
 30
0.0
 11
12600.0
 21
900.0
 31
0.0
  0
LINE
  5
10F
  8
0
  6
CONTINUOUS
 62
7
 10
7200.0
 20
0.0
 30
0.0
 11
7200.0
 21
900.0
 31
0.0
  0
LINE
  5
110
  8
0
  6
CONTINUOUS
 62
7
 10
7200.0
 20
450.0
 30
0.0
 11
12600.0
 21
450.0
 31
0.0
  0
LINE
  5
111
  8
0
  6
CONTINUOUS
 62
7
 10
10800.0
 20
0.0
 30
0.0
 11
10800.0
 21
900.0
 31
0.0
  0
TEXT
  5
112
  8
0
 62
7
 10
1200.0
 20
3450.0
 30
0.0
 40
80.0
  1
▽FL（渡り廊下床）
  0
TEXT
  5
113
  8
0
 62
7
 10
1800.0
 20
6130.0
 30
0.0
 40
80.0
  1
天井高 H2470（内部天井高による）
  0
TEXT
  5
114
  8
0
 62
7
 10
2865.0
 20
4582.5
 30
0.0
 40
110.0
  1
FIX
 72
1
 11
2865.0
 21
4582.5
 31
0.0
 73
1
  0
TEXT
  5
115
  8
0
 62
7
 10
5235.0
 20
4582.5
 30
0.0
 40
110.0
  1
FIX
 72
1
 11
5235.0
 21
4582.5
 31
0.0
 73
1
  0
TEXT
  5
116
  8
0
 62
7
 10
4050.0
 20
4732.5
 30
0.0
 40
110.0
  1
自動ドア
 72
1
 11
4050.0
 21
4732.5
 31
0.0
 73
1
  0
TEXT
  5
117
  8
0
 62
7
 10
4050.0
 20
4542.5
 30
0.0
 40
90.0
  1
W1200（有効）
 72
1
 11
4050.0
 21
4542.5
 31
0.0
 73
1
  0
TEXT
  5
118
  8
0
 62
7
 10
4050.0
 20
3720.0
 30
0.0
 40
85.0
  1
両袖FIX付片引自動扉 SUS304 W3540×H1965（建具工事）
 72
1
 11
4050.0
 21
3720.0
 31
0.0
 73
1
  0
TEXT
  5
119
  8
0
 62
7
 10
3505.0
 20
5742.5
 30
0.0
 40
80.0
  1
エンジン W2450 EGL=2400
 72
1
 11
3505.0
 21
5742.5
 31
0.0
 73
1
  0
TEXT
  5
11A
  8
0
 62
7
 10
4790.0
 20
5777.5
 30
0.0
 40
80.0
  1
上部納まり 要確認
  0
TEXT
  5
11B
  8
0
 62
7
 10
650.0
 20
6445.0
 30
0.0
 40
80.0
  1
外壁仕上げ（斜線部）
  0
TEXT
  5
11C
  8
0
 62
7
 10
6610.0
 20
3275.0
 30
0.0
 40
80.0
  1
土台水切り ガルバ
  0
TEXT
  5
11D
  8
0
 62
7
 10
820.0
 20
4562.75
 30
0.0
 40
80.0
  1
枠廻りシーリング
  0
TEXT
  5
11E
  8
0
 62
7
 10
2040.0
 20
3190.0
 30
0.0
 40
90.0
  1
480
 72
1
 11
2040.0
 21
3190.0
 31
0.0
 73
1
  0
TEXT
  5
11F
  8
0
 62
7
 10
4050.0
 20
3190.0
 30
0.0
 40
90.0
  1
3540
 72
1
 11
4050.0
 21
3190.0
 31
0.0
 73
1
  0
TEXT
  5
120
  8
0
 62
7
 10
6060.0
 20
3190.0
 30
0.0
 40
90.0
  1
480
 72
1
 11
6060.0
 21
3190.0
 31
0.0
 73
1
  0
TEXT
  5
121
  8
0
 62
7
 10
4050.0
 20
2890.0
 30
0.0
 40
90.0
  1
4500
 72
1
 11
4050.0
 21
2890.0
 31
0.0
 73
1
  0
TEXT
  5
122
  8
0
 62
7
 10
6810.0
 20
4582.5
 30
0.0
 40
90.0
  1
1965
  0
TEXT
  5
123
  8
0
 62
7
 10
7160.0
 20
4835.0
 30
0.0
 40
90.0
  1
2470
  0
TEXT
  5
124
  8
0
 62
7
 10
1510.0
 20
5782.5
 30
0.0
 40
90.0
  1
435
  0
TEXT
  5
125
  8
0
 62
7
 10
7900.0
 20
6270.0
 30
0.0
 40
110.0
  1
【外壁仕上げ】
  0
TEXT
  5
126
  8
0
 62
7
 10
7900.0
 20
6080.0
 30
0.0
 40
95.0
  1
・斜線部：透湿防水シート＋波形ラス
  0
TEXT
  5
127
  8
0
 62
7
 10
7900.0
 20
5890.0
 30
0.0
 40
95.0
  1
　＋モルタル塗り（下・中塗り）＋吹付塗装
  0
TEXT
  5
128
  8
0
 62
7
 10
7900.0
 20
5700.0
 30
0.0
 40
95.0
  1
　0.48m×2.47m×2箇所 ≒ 2.4㎡
  0
TEXT
  5
129
  8
0
 62
7
 10
7900.0
 20
5510.0
 30
0.0
 40
95.0
  1
・土台水切り：ガルバリウム鋼板 L≒1.0m
  0
TEXT
  5
12A
  8
0
 62
7
 10
7900.0
 20
5320.0
 30
0.0
 40
95.0
  1
・枠廻りシーリング：変成シリコン L≒7.5m
  0
TEXT
  5
12B
  8
0
 62
7
 10
7900.0
 20
5130.0
 30
0.0
 40
95.0
  1

  0
TEXT
  5
12C
  8
0
 62
7
 10
7900.0
 20
4940.0
 30
0.0
 40
110.0
  1
【注記】
  0
TEXT
  5
12D
  8
0
 62
7
 10
7900.0
 20
4750.0
 30
0.0
 40
95.0
  1
・全体幅4500は計画平面図（4535）による概寸
  0
TEXT
  5
12E
  8
0
 62
7
 10
7900.0
 20
4560.0
 30
0.0
 40
95.0
  1
・建具寸法は建具見積（W3540×H1965）による
  0
TEXT
  5
12F
  8
0
 62
7
 10
7900.0
 20
4370.0
 30
0.0
 40
95.0
  1
・建具位置は中央振分け（両袖480）と仮定
  0
TEXT
  5
130
  8
0
 62
7
 10
7900.0
 20
4180.0
 30
0.0
 40
95.0
  1
・上部（H1965～）の納まりは建具業者と要確認
  0
TEXT
  5
131
  8
0
 62
7
 10
7900.0
 20
3990.0
 30
0.0
 40
95.0
  1
・仕上げ仕様は既存外壁に合わせ現地確認のこと
  0
TEXT
  5
132
  8
0
 62
7
 10
4050.0
 20
2350.0
 30
0.0
 40
160.0
  1
外部展開図（自動ドア面）  S=1/30
 72
1
 11
4050.0
 21
2350.0
 31
0.0
 73
1
  0
TEXT
  5
133
  8
0
 62
7
 10
7300.0
 20
600.0
 30
0.0
 40
110.0
  1
本願寺様 嘉枝堂渡り廊下 自動ドア新設工事
  0
TEXT
  5
134
  8
0
 62
7
 10
7300.0
 20
150.0
 30
0.0
 40
110.0
  1
外部展開図（自動ドア面）
  0
TEXT
  5
135
  8
0
 62
7
 10
10900.0
 20
600.0
 30
0.0
 40
100.0
  1
S=1/30 (A3)
  0
TEXT
  5
136
  8
0
 62
7
 10
10900.0
 20
150.0
 30
0.0
 40
100.0
  1
2026/09/30
  0
ENDSEC
  0
EOF
